<svg xmlns="http://www.w3.org/2000/svg" viewBox="0 0 56 56" fill="none">
  <defs>
    <linearGradient id="g" x1="0" y1="0" x2="56" y2="56" gradientUnits="userSpaceOnUse">
      <stop offset="0" stop-color="#FFD700" stop-opacity="0.9"/>
      <stop offset="1" stop-color="#B8860B" stop-opacity="0.85"/>
    </linearGradient>
    <linearGradient id="shine" x1="10" y1="8" x2="40" y2="48" gradientUnits="userSpaceOnUse">
      <stop offset="0" stop-color="#fff" stop-opacity="0.5"/>
      <stop offset="0.5" stop-color="#fff" stop-opacity="0"/>
    </linearGradient>
  </defs>
  <rect width="56" height="56" rx="14" fill="url(#g)"/>
  <rect width="56" height="56" rx="14" fill="url(#shine)"/>
  <circle cx="28" cy="28" r="13" stroke="#fff" stroke-width="2" fill="none" opacity="0.9"/>
  <circle cx="28" cy="28" r="9" stroke="#fff" stroke-width="1.2" fill="none" opacity="0.5"/>
  <path d="M26 20v2m4-2v2m-6 2h8a2 2 0 0 1 2 2v6a2 2 0 0 1-2 2h-8a2 2 0 0 1-2-2v-6a2 2 0 0 1 2-2zm0 12v2m4-2v2" stroke="#fff" stroke-width="1.8" stroke-linecap="round" opacity="0.9"/>
</svg>
